<svg xmlns="http://www.w3.org/2000/svg" width="64.068" height="64" viewBox="0 0 64.068 64">
  <g id="Group_43" data-name="Group 43" transform="translate(0.068)">
    <rect id="Rectangle_28" data-name="Rectangle 28" width="64" height="64" fill="none"/>
    <path id="Path_19" data-name="Path 19" d="M-28.291-6.315-31.4,2.3h1.569l.667-1.944h3.528l.667,1.944H-23.4l-3.111-8.611Zm-.4,5.278L-27.4-4.828l1.292,3.792ZM-22.8-6.078v1.431h-.875v1.222h.875V.56a1.787,1.787,0,0,0,1.847,1.9,3.079,3.079,0,0,0,1.694-.556L-19.874.866a1.783,1.783,0,0,1-.889.361c-.472,0-.653-.472-.653-1.014V-3.426h1.694V-4.648h-1.694V-6.078ZM-13.138.5-14.375.033a1.842,1.842,0,0,1-1.653,1.139A2.043,2.043,0,0,1-17.958-.717h5.014v-.389c0-2.1-1.236-3.708-3.125-3.708A3.42,3.42,0,0,0-19.374-1.19a3.437,3.437,0,0,0,3.306,3.653A3.122,3.122,0,0,0-13.138.5M-17.9-1.967a1.964,1.964,0,0,1,1.833-1.556,1.832,1.832,0,0,1,1.736,1.556ZM-12.041,2.3h1.389V-7.009h-1.389Zm0-9.305M-9.514,2.3h1.389V-4.648H-9.514Zm0-6.944-.042-.944h1.472V-7.009H-9.555ZM-.986.5-2.222.033A1.842,1.842,0,0,1-3.875,1.172,2.043,2.043,0,0,1-5.806-.717H-.792v-.389c0-2.1-1.236-3.708-3.125-3.708A3.42,3.42,0,0,0-7.222-1.19,3.437,3.437,0,0,0-3.917,2.463,3.122,3.122,0,0,0-.986.5M-5.75-1.967A1.964,1.964,0,0,1-3.917-3.523,1.832,1.832,0,0,1-2.181-1.967ZM.111-4.648V2.3H1.5V-1.384c0-1.278.653-2,1.569-2a2,2,0,0,1,.514.069L4.153-4.69a3.1,3.1,0,0,0-.875-.125A1.81,1.81,0,0,0,1.472-3.592L1.389-4.648Zm4.18,2.639A4.2,4.2,0,0,0,8.333,2.463a3.771,3.771,0,0,0,3.75-3l-1.431-.486A2.435,2.435,0,0,1,8.333,1,2.755,2.755,0,0,1,5.777-2.009,2.755,2.755,0,0,1,8.333-5.023a2.409,2.409,0,0,1,2.319,1.986l1.431-.431a3.77,3.77,0,0,0-3.75-3.014A4.2,4.2,0,0,0,4.291-2.009m8.375,2.4a2.127,2.127,0,0,0,2.347,2.069,2.28,2.28,0,0,0,1.972-.944l.1.778h1.625a1.841,1.841,0,0,1-.319-1.222V-2.44a2.207,2.207,0,0,0-2.514-2.375A3,3,0,0,0,12.958-3.2l1.347.556a1.66,1.66,0,0,1,1.569-.819c.486,0,1.1.139,1.1.667,0,.4-.347.708-1.4.889-1.458.25-2.9.889-2.9,2.306M14.125.38c0-.444.375-.736,1.25-.917A2.942,2.942,0,0,0,17-1.273v.667a1.605,1.605,0,0,1-1.68,1.764c-.542,0-1.194-.194-1.194-.778m5.444-5.028V2.3h1.389V-1.384c0-1.278.653-2,1.569-2a2,2,0,0,1,.514.069L23.61-4.69a3.1,3.1,0,0,0-.875-.125A1.81,1.81,0,0,0,20.93-3.592l-.083-1.056ZM23.944,2.3h1.389V-7.009H23.944Zm0-9.305M32.471.5,31.235.033a1.842,1.842,0,0,1-1.653,1.139A2.043,2.043,0,0,1,27.652-.717h5.014v-.389c0-2.1-1.236-3.708-3.125-3.708A3.42,3.42,0,0,0,26.235-1.19a3.437,3.437,0,0,0,3.306,3.653A3.122,3.122,0,0,0,32.471.5M27.707-1.967a1.964,1.964,0,0,1,1.833-1.556,1.832,1.832,0,0,1,1.736,1.556Z" transform="translate(31.334 34.273)"/>
  </g>
</svg>
